<?xml version="1.0" encoding="UTF-8" standalone="no"?>
<svg
   xmlns:dc="http://purl.org/dc/elements/1.1/"
   xmlns:cc="http://creativecommons.org/ns#"
   xmlns:rdf="http://www.w3.org/1999/02/22-rdf-syntax-ns#"
   xmlns:svg="http://www.w3.org/2000/svg"
   xmlns="http://www.w3.org/2000/svg"
   xmlns:xlink="http://www.w3.org/1999/xlink"
   xmlns:sodipodi="http://sodipodi.sourceforge.net/DTD/sodipodi-0.dtd"
   xmlns:inkscape="http://www.inkscape.org/namespaces/inkscape"
   height="340.04218pt"
   version="1.1"
   viewBox="0 0 183.95881 340.04218"
   width="183.95882pt"
   id="svg554"
   sodipodi:docname="safety_crime.svg"
   inkscape:version="1.0 (b51213c273, 2020-08-10)"
   inkscape:export-filename="/home/benmk/documents/code/personal/defundNPD/plots/safety_crime.png"
   inkscape:export-xdpi="207.43773"
   inkscape:export-ydpi="207.43773">
  <metadata
     id="metadata558">
    <rdf:RDF>
      <cc:Work
         rdf:about="">
        <dc:format>image/svg+xml</dc:format>
        <dc:type
           rdf:resource="http://purl.org/dc/dcmitype/StillImage" />
      </cc:Work>
    </rdf:RDF>
  </metadata>
  <sodipodi:namedview
     pagecolor="#ffffff"
     bordercolor="#666666"
     borderopacity="1"
     objecttolerance="10"
     gridtolerance="10"
     guidetolerance="10"
     inkscape:pageopacity="0"
     inkscape:pageshadow="2"
     inkscape:window-width="1920"
     inkscape:window-height="1136"
     id="namedview556"
     showgrid="false"
     inkscape:zoom="1.4142136"
     inkscape:cx="158.18158"
     inkscape:cy="213.4083"
     inkscape:window-x="0"
     inkscape:window-y="0"
     inkscape:window-maximized="1"
     inkscape:current-layer="svg554"
     inkscape:document-rotation="0" />
  <defs
     id="defs4">
    <style
       type="text/css"
       id="style2">
*{stroke-linecap:butt;stroke-linejoin:round;white-space:pre;}
  </style>
  </defs>
  <path
     d="M 0,340.04219 H 183.95882 V 0 H 0 Z"
     style="fill:#ffffff;stroke-width:0.922633"
     id="path6" />
  <g
     id="PathCollection_3"
     transform="translate(0,3.162278)" />
  <g
     id="PathCollection_4"
     transform="translate(0,3.162278)" />
  <g
     id="PathCollection_5"
     transform="translate(0,3.162278)" />
  <g
     id="PathCollection_6"
     transform="translate(0,3.162278)" />
  <g
     id="PathCollection_7"
     transform="translate(0,3.162278)" />
  <g
     id="PathCollection_8"
     transform="translate(0,3.162278)" />
  <g
     id="PathCollection_9"
     transform="translate(0,3.162278)" />
  <g
     id="PathCollection_10"
     transform="translate(0,3.162278)" />
  <g
     id="PathCollection_11"
     transform="translate(0,3.162278)" />
  <g
     id="PathCollection_12"
     transform="translate(0,3.162278)" />
  <g
     id="PathCollection_13"
     transform="translate(0,3.162278)" />
  <g
     id="PathCollection_14"
     transform="translate(0,3.162278)" />
  <g
     id="PathCollection_15"
     transform="translate(0,3.162278)" />
  <g
     id="PathCollection_16"
     transform="translate(0,3.162278)" />
  <g
     id="PathCollection_17"
     transform="translate(0,3.162278)" />
  <g
     id="PathCollection_18"
     transform="translate(0,3.162278)" />
  <g
     id="PathCollection_19"
     transform="translate(0,3.162278)" />
  <g
     id="PathCollection_20"
     transform="translate(0,3.162278)" />
  <g
     id="PathCollection_21"
     transform="translate(0,3.162278)" />
  <g
     id="PathCollection_22"
     transform="translate(0,3.162278)" />
  <g
     id="PathCollection_23"
     transform="translate(0,3.162278)" />
  <g
     id="PathCollection_24"
     transform="translate(0,3.162278)" />
  <g
     id="PathCollection_25"
     transform="translate(0,3.162278)" />
  <g
     id="PathCollection_26"
     transform="translate(0,3.162278)" />
  <g
     id="patch_2"
     transform="translate(-3.0767333,1.684093)">
    <path
       d="m 39.365625,327.321 h 42.2 V 3.6 h -42.2 z"
       style="fill:#ffffff"
       id="path9" />
  </g>
  <g
     id="PathCollection_1"
     transform="translate(0,3.162278)">
    <defs
       id="defs13">
      <path
         d="M 0,3.162278 1.897367,0 0,-3.162278 -1.897367,0 Z"
         id="md40b120e93"
         style="stroke:#4477aa;stroke-width:0.5" />
    </defs>
    <g
       clip-path="url(#pec9ceb09d5)"
       id="g17">
      <use
         style="fill:#4477aa;stroke:#4477aa;stroke-width:0.5"
         x="60.465626"
         xlink:href="#md40b120e93"
         y="127.46595"
         id="use15"
         width="100%"
         height="100%" />
    </g>
  </g>
  <g
     id="PathCollection_2"
     transform="translate(0,3.162278)">
    <defs
       id="defs21">
      <path
         d="M 0,1.5 C 0.397805,1.5 0.77937,1.341951 1.06066,1.06066 1.341951,0.77937 1.5,0.397805 1.5,0 1.5,-0.397805 1.341951,-0.77937 1.06066,-1.06066 0.77937,-1.341951 0.397805,-1.5 0,-1.5 c -0.397805,0 -0.77937,0.158049 -1.06066,0.43934 C -1.341951,-0.77937 -1.5,-0.397805 -1.5,0 c 0,0.397805 0.158049,0.77937 0.43934,1.06066 C -0.77937,1.341951 -0.397805,1.5 0,1.5 Z"
         id="C0_0_063bc3779f" />
    </defs>
    <g
       clip-path="url(#pec9ceb09d5)"
       id="g25">
      <use
         style="fill:#333c37;stroke:#ffffff;stroke-width:0.75"
         x="60.465626"
         xlink:href="#C0_0_063bc3779f"
         y="18.779425"
         id="use23"
         width="100%"
         height="100%" />
    </g>
    <g
       clip-path="url(#pec9ceb09d5)"
       id="g29">
      <use
         style="fill:#34453b;stroke:#ffffff;stroke-width:0.75"
         x="60.465626"
         xlink:href="#C0_0_063bc3779f"
         y="82.078728"
         id="use27"
         width="100%"
         height="100%" />
    </g>
    <g
       clip-path="url(#pec9ceb09d5)"
       id="g33">
      <use
         style="fill:#344f40;stroke:#ffffff;stroke-width:0.75"
         x="60.465626"
         xlink:href="#C0_0_063bc3779f"
         y="93.354851"
         id="use31"
         width="100%"
         height="100%" />
    </g>
    <g
       clip-path="url(#pec9ceb09d5)"
       id="g37">
      <use
         style="fill:#345844;stroke:#ffffff;stroke-width:0.75"
         x="60.465626"
         xlink:href="#C0_0_063bc3779f"
         y="106.06127"
         id="use35"
         width="100%"
         height="100%" />
    </g>
    <g
       clip-path="url(#pec9ceb09d5)"
       id="g41">
      <use
         style="fill:#356148;stroke:#ffffff;stroke-width:0.75"
         x="60.465626"
         xlink:href="#C0_0_063bc3779f"
         y="171.82204"
         id="use39"
         width="100%"
         height="100%" />
    </g>
    <g
       clip-path="url(#pec9ceb09d5)"
       id="g45">
      <use
         style="fill:#356b4c;stroke:#ffffff;stroke-width:0.75"
         x="60.465626"
         xlink:href="#C0_0_063bc3779f"
         y="176.86136"
         id="use43"
         width="100%"
         height="100%" />
    </g>
    <g
       clip-path="url(#pec9ceb09d5)"
       id="g49">
      <use
         style="fill:#357450;stroke:#ffffff;stroke-width:0.75"
         x="60.465626"
         xlink:href="#C0_0_063bc3779f"
         y="178.12535"
         id="use47"
         width="100%"
         height="100%" />
    </g>
    <g
       clip-path="url(#pec9ceb09d5)"
       id="g53">
      <use
         style="fill:#367d55;stroke:#ffffff;stroke-width:0.75"
         x="60.465626"
         xlink:href="#C0_0_063bc3779f"
         y="181.65121"
         id="use51"
         width="100%"
         height="100%" />
    </g>
    <g
       clip-path="url(#pec9ceb09d5)"
       id="g57">
      <use
         style="fill:#368759;stroke:#ffffff;stroke-width:0.75"
         x="60.465626"
         xlink:href="#C0_0_063bc3779f"
         y="186.7737"
         id="use55"
         width="100%"
         height="100%" />
    </g>
    <g
       clip-path="url(#pec9ceb09d5)"
       id="g61">
      <use
         style="fill:#36905d;stroke:#ffffff;stroke-width:0.75"
         x="60.465626"
         xlink:href="#C0_0_063bc3779f"
         y="189.5179"
         id="use59"
         width="100%"
         height="100%" />
    </g>
    <g
       clip-path="url(#pec9ceb09d5)"
       id="g65">
      <use
         style="fill:#379961;stroke:#ffffff;stroke-width:0.75"
         x="60.465626"
         xlink:href="#C0_0_063bc3779f"
         y="202.55695"
         id="use63"
         width="100%"
         height="100%" />
    </g>
    <g
       clip-path="url(#pec9ceb09d5)"
       id="g69">
      <use
         style="fill:#37a366;stroke:#ffffff;stroke-width:0.75"
         x="60.465626"
         xlink:href="#C0_0_063bc3779f"
         y="203.5881"
         id="use67"
         width="100%"
         height="100%" />
    </g>
    <g
       clip-path="url(#pec9ceb09d5)"
       id="g73">
      <use
         style="fill:#40a76f;stroke:#ffffff;stroke-width:0.75"
         x="60.465626"
         xlink:href="#C0_0_063bc3779f"
         y="205.11819"
         id="use71"
         width="100%"
         height="100%" />
    </g>
    <g
       clip-path="url(#pec9ceb09d5)"
       id="g77">
      <use
         style="fill:#4aad78;stroke:#ffffff;stroke-width:0.75"
         x="60.465626"
         xlink:href="#C0_0_063bc3779f"
         y="209.52553"
         id="use75"
         width="100%"
         height="100%" />
    </g>
    <g
       clip-path="url(#pec9ceb09d5)"
       id="g81">
      <use
         style="fill:#54b281;stroke:#ffffff;stroke-width:0.75"
         x="60.465626"
         xlink:href="#C0_0_063bc3779f"
         y="216.64378"
         id="use79"
         width="100%"
         height="100%" />
    </g>
    <g
       clip-path="url(#pec9ceb09d5)"
       id="g85">
      <use
         style="fill:#5db68a;stroke:#ffffff;stroke-width:0.75"
         x="60.465626"
         xlink:href="#C0_0_063bc3779f"
         y="231.37926"
         id="use83"
         width="100%"
         height="100%" />
    </g>
    <g
       clip-path="url(#pec9ceb09d5)"
       id="g89">
      <use
         style="fill:#67bc93;stroke:#ffffff;stroke-width:0.75"
         x="60.465626"
         xlink:href="#C0_0_063bc3779f"
         y="246.86313"
         id="use87"
         width="100%"
         height="100%" />
    </g>
    <g
       clip-path="url(#pec9ceb09d5)"
       id="g93">
      <use
         style="fill:#71c19d;stroke:#ffffff;stroke-width:0.75"
         x="60.465626"
         xlink:href="#C0_0_063bc3779f"
         y="248.21028"
         id="use91"
         width="100%"
         height="100%" />
    </g>
    <g
       clip-path="url(#pec9ceb09d5)"
       id="g97">
      <use
         style="fill:#7ac6a5;stroke:#ffffff;stroke-width:0.75"
         x="60.465626"
         xlink:href="#C0_0_063bc3779f"
         y="254.81297"
         id="use95"
         width="100%"
         height="100%" />
    </g>
    <g
       clip-path="url(#pec9ceb09d5)"
       id="g101">
      <use
         style="fill:#84cbaf;stroke:#ffffff;stroke-width:0.75"
         x="60.465626"
         xlink:href="#C0_0_063bc3779f"
         y="274.88712"
         id="use99"
         width="100%"
         height="100%" />
    </g>
    <g
       clip-path="url(#pec9ceb09d5)"
       id="g105">
      <use
         style="fill:#8ed0b8;stroke:#ffffff;stroke-width:0.75"
         x="60.465626"
         xlink:href="#C0_0_063bc3779f"
         y="286.97818"
         id="use103"
         width="100%"
         height="100%" />
    </g>
    <g
       clip-path="url(#pec9ceb09d5)"
       id="g109">
      <use
         style="fill:#97d5c1;stroke:#ffffff;stroke-width:0.75"
         x="60.465626"
         xlink:href="#C0_0_063bc3779f"
         y="301.06503"
         id="use107"
         width="100%"
         height="100%" />
    </g>
    <g
       clip-path="url(#pec9ceb09d5)"
       id="g113">
      <use
         style="fill:#a1daca;stroke:#ffffff;stroke-width:0.75"
         x="60.465626"
         xlink:href="#C0_0_063bc3779f"
         y="312.14157"
         id="use111"
         width="100%"
         height="100%" />
    </g>
  </g>
  <g
     id="matplotlib.axis_2"
     transform="translate(0,3.162278)">
    <g
       id="ytick_1">
      <g
         id="line2d_4">
        <defs
           id="defs172">
          <path
             d="M 0,0 H 3.5"
             id="m26e33cde7c"
             style="stroke:#000000;stroke-width:0.8" />
        </defs>
        <g
           id="g176">
          <use
             style="stroke:#000000;stroke-width:0.8"
             x="39.365623"
             xlink:href="#m26e33cde7c"
             y="304.60754"
             id="use174"
             width="100%"
             height="100%" />
        </g>
      </g>
      <g
         id="text_4">
        <text
           style="font-style:normal;font-weight:normal;font-size:10px;font-family:'DejaVu Sans';text-anchor:end"
           x="36.365623"
           y="308.40674"
           id="text179">150</text>
      </g>
    </g>
    <g
       id="ytick_2">
      <g
         id="line2d_5">
        <g
           id="g185">
          <use
             style="stroke:#000000;stroke-width:0.8"
             x="39.365623"
             xlink:href="#m26e33cde7c"
             y="263.0289"
             id="use183"
             width="100%"
             height="100%" />
        </g>
      </g>
      <g
         id="text_5">
        <text
           style="font-style:normal;font-weight:normal;font-size:10px;font-family:'DejaVu Sans';text-anchor:end"
           x="36.365623"
           y="266.82812"
           id="text188">175</text>
      </g>
    </g>
    <g
       id="ytick_3">
      <g
         id="line2d_6">
        <g
           id="g194">
          <use
             style="stroke:#000000;stroke-width:0.8"
             x="39.365623"
             xlink:href="#m26e33cde7c"
             y="221.45027"
             id="use192"
             width="100%"
             height="100%" />
        </g>
      </g>
      <g
         id="text_6">
        <text
           style="font-style:normal;font-weight:normal;font-size:10px;font-family:'DejaVu Sans';text-anchor:end"
           x="36.365623"
           y="225.2495"
           id="text197">200</text>
      </g>
    </g>
    <g
       id="ytick_4">
      <g
         id="line2d_7">
        <g
           id="g203">
          <use
             style="stroke:#000000;stroke-width:0.8"
             x="39.365623"
             xlink:href="#m26e33cde7c"
             y="179.87166"
             id="use201"
             width="100%"
             height="100%" />
        </g>
      </g>
      <g
         id="text_7">
        <text
           style="font-style:normal;font-weight:normal;font-size:10px;font-family:'DejaVu Sans';text-anchor:end"
           x="36.365623"
           y="183.67087"
           id="text206">225</text>
      </g>
    </g>
    <g
       id="ytick_5">
      <g
         id="line2d_8">
        <g
           id="g212">
          <use
             style="stroke:#000000;stroke-width:0.8"
             x="39.365623"
             xlink:href="#m26e33cde7c"
             y="138.29303"
             id="use210"
             width="100%"
             height="100%" />
        </g>
      </g>
      <g
         id="text_8">
        <text
           style="font-style:normal;font-weight:normal;font-size:10px;font-family:'DejaVu Sans';text-anchor:end"
           x="36.365623"
           y="142.09224"
           id="text215">250</text>
      </g>
    </g>
    <g
       id="ytick_6">
      <g
         id="line2d_9">
        <g
           id="g221">
          <use
             style="stroke:#000000;stroke-width:0.8"
             x="39.365623"
             xlink:href="#m26e33cde7c"
             y="96.714401"
             id="use219"
             width="100%"
             height="100%" />
        </g>
      </g>
      <g
         id="text_9">
        <text
           style="font-style:normal;font-weight:normal;font-size:10px;font-family:'DejaVu Sans';text-anchor:end"
           x="36.365623"
           y="100.51362"
           id="text224">275</text>
      </g>
    </g>
    <g
       id="ytick_7">
      <g
         id="line2d_10">
        <g
           id="g230">
          <use
             style="stroke:#000000;stroke-width:0.8"
             x="39.365623"
             xlink:href="#m26e33cde7c"
             y="55.135773"
             id="use228"
             width="100%"
             height="100%" />
        </g>
      </g>
      <g
         id="text_10">
        <text
           style="font-style:normal;font-weight:normal;font-size:10px;font-family:'DejaVu Sans';text-anchor:end"
           x="36.365623"
           y="58.934994"
           id="text233">300</text>
      </g>
    </g>
    <g
       id="ytick_8">
      <g
         id="line2d_11">
        <g
           id="g239">
          <use
             style="stroke:#000000;stroke-width:0.8"
             x="39.365623"
             xlink:href="#m26e33cde7c"
             y="13.557149"
             id="use237"
             width="100%"
             height="100%" />
        </g>
      </g>
      <g
         id="text_11">
        <text
           style="font-style:normal;font-weight:normal;font-size:10px;font-family:'DejaVu Sans';text-anchor:end"
           x="36.365623"
           y="17.356367"
           id="text242">325</text>
      </g>
    </g>
    <g
       id="text_12">
      <text
         style="font-style:normal;font-weight:normal;font-size:10px;font-family:'DejaVu Sans';text-anchor:middle"
         transform="rotate(-90,11.198438,165.4605)"
         x="11.198438"
         y="165.46049"
         id="text246">Police Budget per capita</text>
    </g>
  </g>
  <g
     id="patch_3"
     transform="translate(0,3.162278)">
    <path
       d="M 39.365625,327.321 V 3.6"
       style="fill:none;stroke:#000000;stroke-width:0.5;stroke-linecap:square;stroke-linejoin:miter"
       id="path253" />
  </g>
  <g
     id="patch_4"
     transform="translate(0,3.162278)">
    <path
       d="M 81.565625,327.321 V 3.6"
       style="fill:none;stroke:#000000;stroke-width:0.5;stroke-linecap:square;stroke-linejoin:miter"
       id="path256" />
  </g>
  <g
     id="patch_5"
     transform="translate(0,3.162278)">
    <path
       d="m 39.365625,327.321 h 42.2"
       style="fill:none;stroke:#000000;stroke-width:0.5;stroke-linecap:square;stroke-linejoin:miter"
       id="path259" />
  </g>
  <g
     id="patch_6"
     transform="translate(0,3.162278)">
    <path
       d="m 39.365625,3.6 h 42.2"
       style="fill:none;stroke:#000000;stroke-width:0.5;stroke-linecap:square;stroke-linejoin:miter"
       id="path262" />
  </g>
  <g
     id="PathCollection_28"
     transform="translate(0,3.162278)">
    <defs
       id="defs283">
      <path
         id="m9ca04fde8c"
         style="stroke:#ffffff;stroke-width:0.75"
         d="" />
    </defs>
    <g
       id="g287">
      <use
         style="fill:#ffffff;stroke:#ffffff;stroke-width:0.75"
         x="131.15262"
         xlink:href="#m9ca04fde8c"
         y="34.695629"
         id="use285"
         width="100%"
         height="100%" />
    </g>
  </g>
  <g
     id="text_13"
     transform="translate(-34.5,27.395878)">
    <text
       style="font-style:normal;font-weight:normal;font-size:8.33px;font-family:'DejaVu Sans';text-anchor:start"
       x="146.14662"
       y="17.426498"
       id="text268">median</text>
  </g>
  <g
     id="PathCollection_27"
     transform="translate(-34.5,30.395878)">
    <defs
       id="defs272">
      <path
         d="M 0,2.529822 1.517893,0 0,-2.529822 -1.517893,0 Z"
         id="m5cc95617bf"
         style="stroke:#4477aa;stroke-width:0.5" />
    </defs>
    <g
       id="g276">
      <use
         style="fill:#4477aa;stroke:#4477aa;stroke-width:0.5"
         x="131.15262"
         xlink:href="#m5cc95617bf"
         y="24.967752"
         id="use274"
         width="100%"
         height="100%" />
    </g>
  </g>
  <g
     id="text_14"
     transform="translate(-34.5,30.395878)">
    <text
       style="font-style:normal;font-weight:normal;font-size:8.33px;font-family:'DejaVu Sans';text-anchor:start"
       x="146.14662"
       y="27.154377"
       id="text279">Newton</text>
  </g>
  <g
     id="PathCollection_29"
     transform="translate(-34.5,37.895878)">
    <defs
       id="defs294">
      <path
         d="M 0,1.2 C 0.318244,1.2 0.623496,1.07356 0.848528,0.848528 1.07356,0.623496 1.2,0.318244 1.2,0 1.2,-0.318244 1.07356,-0.623496 0.848528,-0.848528 0.623496,-1.07356 0.318244,-1.2 0,-1.2 c -0.318244,0 -0.623496,0.12644 -0.848528,0.351472 C -1.07356,-0.623496 -1.2,-0.318244 -1.2,0 c 0,0.318244 0.12644,0.623496 0.351472,0.848528 C -0.623496,1.07356 -0.318244,1.2 0,1.2 Z"
         id="m3dd0d97850"
         style="stroke:#333c37;stroke-width:0.5" />
    </defs>
    <g
       id="g298">
      <use
         style="fill:#333c37;stroke:#333c37;stroke-width:0.5"
         x="131.15262"
         xlink:href="#m3dd0d97850"
         y="44.423508"
         id="use296"
         width="100%"
         height="100%" />
    </g>
  </g>
  <g
     id="text_16"
     transform="translate(-34.5,37.895878)">
    <text
       style="font-style:normal;font-weight:normal;font-size:8.33px;font-family:'DejaVu Sans';text-anchor:start"
       x="146.14662"
       y="46.610134"
       id="text301">Waltham</text>
  </g>
  <g
     id="PathCollection_30"
     transform="translate(-34.5,37.895878)">
    <defs
       id="defs305">
      <path
         d="M 0,1.2 C 0.318244,1.2 0.623496,1.07356 0.848528,0.848528 1.07356,0.623496 1.2,0.318244 1.2,0 1.2,-0.318244 1.07356,-0.623496 0.848528,-0.848528 0.623496,-1.07356 0.318244,-1.2 0,-1.2 c -0.318244,0 -0.623496,0.12644 -0.848528,0.351472 C -1.07356,-0.623496 -1.2,-0.318244 -1.2,0 c 0,0.318244 0.12644,0.623496 0.351472,0.848528 C -0.623496,1.07356 -0.318244,1.2 0,1.2 Z"
         id="m45ed051a53"
         style="stroke:#34453b;stroke-width:0.5" />
    </defs>
    <g
       id="g309">
      <use
         style="fill:#34453b;stroke:#34453b;stroke-width:0.5"
         x="131.15262"
         xlink:href="#m45ed051a53"
         y="54.151386"
         id="use307"
         width="100%"
         height="100%" />
    </g>
  </g>
  <g
     id="text_17"
     transform="translate(-34.5,37.895878)">
    <text
       style="font-style:normal;font-weight:normal;font-size:8.33px;font-family:'DejaVu Sans';text-anchor:start"
       x="146.14662"
       y="56.338013"
       id="text312">Belmont</text>
  </g>
  <g
     id="PathCollection_31"
     transform="translate(-34.5,37.895878)">
    <defs
       id="defs316">
      <path
         d="M 0,1.2 C 0.318244,1.2 0.623496,1.07356 0.848528,0.848528 1.07356,0.623496 1.2,0.318244 1.2,0 1.2,-0.318244 1.07356,-0.623496 0.848528,-0.848528 0.623496,-1.07356 0.318244,-1.2 0,-1.2 c -0.318244,0 -0.623496,0.12644 -0.848528,0.351472 C -1.07356,-0.623496 -1.2,-0.318244 -1.2,0 c 0,0.318244 0.12644,0.623496 0.351472,0.848528 C -0.623496,1.07356 -0.318244,1.2 0,1.2 Z"
         id="mb62a8e6dda"
         style="stroke:#344f40;stroke-width:0.5" />
    </defs>
    <g
       id="g320">
      <use
         style="fill:#344f40;stroke:#344f40;stroke-width:0.5"
         x="131.15262"
         xlink:href="#mb62a8e6dda"
         y="63.879265"
         id="use318"
         width="100%"
         height="100%" />
    </g>
  </g>
  <g
     id="text_18"
     transform="translate(-34.5,37.895878)">
    <text
       style="font-style:normal;font-weight:normal;font-size:8.33px;font-family:'DejaVu Sans';text-anchor:start"
       x="146.14662"
       y="66.065887"
       id="text323">Watertown</text>
  </g>
  <g
     id="PathCollection_32"
     transform="translate(-34.5,37.895878)">
    <defs
       id="defs327">
      <path
         d="M 0,1.2 C 0.318244,1.2 0.623496,1.07356 0.848528,0.848528 1.07356,0.623496 1.2,0.318244 1.2,0 1.2,-0.318244 1.07356,-0.623496 0.848528,-0.848528 0.623496,-1.07356 0.318244,-1.2 0,-1.2 c -0.318244,0 -0.623496,0.12644 -0.848528,0.351472 C -1.07356,-0.623496 -1.2,-0.318244 -1.2,0 c 0,0.318244 0.12644,0.623496 0.351472,0.848528 C -0.623496,1.07356 -0.318244,1.2 0,1.2 Z"
         id="m666eab00bc"
         style="stroke:#345844;stroke-width:0.5" />
    </defs>
    <g
       id="g331">
      <use
         style="fill:#345844;stroke:#345844;stroke-width:0.5"
         x="131.15262"
         xlink:href="#m666eab00bc"
         y="73.60714"
         id="use329"
         width="100%"
         height="100%" />
    </g>
  </g>
  <g
     id="text_19"
     transform="translate(-34.5,37.895878)">
    <text
       style="font-style:normal;font-weight:normal;font-size:8.33px;font-family:'DejaVu Sans';text-anchor:start"
       x="146.14662"
       y="75.79377"
       id="text334">Milton</text>
  </g>
  <g
     id="PathCollection_33"
     transform="translate(-34.5,37.895878)">
    <defs
       id="defs338">
      <path
         d="M 0,1.2 C 0.318244,1.2 0.623496,1.07356 0.848528,0.848528 1.07356,0.623496 1.2,0.318244 1.2,0 1.2,-0.318244 1.07356,-0.623496 0.848528,-0.848528 0.623496,-1.07356 0.318244,-1.2 0,-1.2 c -0.318244,0 -0.623496,0.12644 -0.848528,0.351472 C -1.07356,-0.623496 -1.2,-0.318244 -1.2,0 c 0,0.318244 0.12644,0.623496 0.351472,0.848528 C -0.623496,1.07356 -0.318244,1.2 0,1.2 Z"
         id="md554847e25"
         style="stroke:#356148;stroke-width:0.5" />
    </defs>
    <g
       id="g342">
      <use
         style="fill:#356148;stroke:#356148;stroke-width:0.5"
         x="131.15262"
         xlink:href="#md554847e25"
         y="83.335022"
         id="use340"
         width="100%"
         height="100%" />
    </g>
  </g>
  <g
     id="text_20"
     transform="translate(-34.5,37.895878)">
    <text
       style="font-style:normal;font-weight:normal;font-size:8.33px;font-family:'DejaVu Sans';text-anchor:start"
       x="146.14662"
       y="85.521645"
       id="text345">Marshfield</text>
  </g>
  <g
     id="PathCollection_34"
     transform="translate(-34.5,37.895878)">
    <defs
       id="defs349">
      <path
         d="M 0,1.2 C 0.318244,1.2 0.623496,1.07356 0.848528,0.848528 1.07356,0.623496 1.2,0.318244 1.2,0 1.2,-0.318244 1.07356,-0.623496 0.848528,-0.848528 0.623496,-1.07356 0.318244,-1.2 0,-1.2 c -0.318244,0 -0.623496,0.12644 -0.848528,0.351472 C -1.07356,-0.623496 -1.2,-0.318244 -1.2,0 c 0,0.318244 0.12644,0.623496 0.351472,0.848528 C -0.623496,1.07356 -0.318244,1.2 0,1.2 Z"
         id="m45d248fb33"
         style="stroke:#356b4c;stroke-width:0.5" />
    </defs>
    <g
       id="g353">
      <use
         style="fill:#356b4c;stroke:#356b4c;stroke-width:0.5"
         x="131.15262"
         xlink:href="#m45d248fb33"
         y="93.062897"
         id="use351"
         width="100%"
         height="100%" />
    </g>
  </g>
  <g
     id="text_21"
     transform="translate(-34.5,37.895878)">
    <text
       style="font-style:normal;font-weight:normal;font-size:8.33px;font-family:'DejaVu Sans';text-anchor:start"
       x="146.14662"
       y="95.249519"
       id="text356">Somerville</text>
  </g>
  <g
     id="PathCollection_35"
     transform="translate(-34.5,37.895878)">
    <defs
       id="defs360">
      <path
         d="M 0,1.2 C 0.318244,1.2 0.623496,1.07356 0.848528,0.848528 1.07356,0.623496 1.2,0.318244 1.2,0 1.2,-0.318244 1.07356,-0.623496 0.848528,-0.848528 0.623496,-1.07356 0.318244,-1.2 0,-1.2 c -0.318244,0 -0.623496,0.12644 -0.848528,0.351472 C -1.07356,-0.623496 -1.2,-0.318244 -1.2,0 c 0,0.318244 0.12644,0.623496 0.351472,0.848528 C -0.623496,1.07356 -0.318244,1.2 0,1.2 Z"
         id="md205c435a8"
         style="stroke:#357450;stroke-width:0.5" />
    </defs>
    <g
       id="g364">
      <use
         style="fill:#357450;stroke:#357450;stroke-width:0.5"
         x="131.15262"
         xlink:href="#md205c435a8"
         y="102.79078"
         id="use362"
         width="100%"
         height="100%" />
    </g>
  </g>
  <g
     id="text_22"
     transform="translate(-34.5,37.895878)">
    <text
       style="font-style:normal;font-weight:normal;font-size:8.33px;font-family:'DejaVu Sans';text-anchor:start"
       x="146.14662"
       y="104.9774"
       id="text367">Needham</text>
  </g>
  <g
     id="PathCollection_36"
     transform="translate(-34.5,37.895878)">
    <defs
       id="defs371">
      <path
         d="M 0,1.2 C 0.318244,1.2 0.623496,1.07356 0.848528,0.848528 1.07356,0.623496 1.2,0.318244 1.2,0 1.2,-0.318244 1.07356,-0.623496 0.848528,-0.848528 0.623496,-1.07356 0.318244,-1.2 0,-1.2 c -0.318244,0 -0.623496,0.12644 -0.848528,0.351472 C -1.07356,-0.623496 -1.2,-0.318244 -1.2,0 c 0,0.318244 0.12644,0.623496 0.351472,0.848528 C -0.623496,1.07356 -0.318244,1.2 0,1.2 Z"
         id="m4d63a6dd73"
         style="stroke:#367d55;stroke-width:0.5" />
    </defs>
    <g
       id="g375">
      <use
         style="fill:#367d55;stroke:#367d55;stroke-width:0.5"
         x="131.15262"
         xlink:href="#m4d63a6dd73"
         y="112.51865"
         id="use373"
         width="100%"
         height="100%" />
    </g>
  </g>
  <g
     id="text_23"
     transform="translate(-34.5,37.895878)">
    <text
       style="font-style:normal;font-weight:normal;font-size:8.33px;font-family:'DejaVu Sans';text-anchor:start"
       x="146.14662"
       y="114.70528"
       id="text378">Lexington</text>
  </g>
  <g
     id="PathCollection_37"
     transform="translate(-34.5,37.895878)">
    <defs
       id="defs382">
      <path
         d="M 0,1.2 C 0.318244,1.2 0.623496,1.07356 0.848528,0.848528 1.07356,0.623496 1.2,0.318244 1.2,0 1.2,-0.318244 1.07356,-0.623496 0.848528,-0.848528 0.623496,-1.07356 0.318244,-1.2 0,-1.2 c -0.318244,0 -0.623496,0.12644 -0.848528,0.351472 C -1.07356,-0.623496 -1.2,-0.318244 -1.2,0 c 0,0.318244 0.12644,0.623496 0.351472,0.848528 C -0.623496,1.07356 -0.318244,1.2 0,1.2 Z"
         id="mfafd2eecd9"
         style="stroke:#368759;stroke-width:0.5" />
    </defs>
    <g
       id="g386">
      <use
         style="fill:#368759;stroke:#368759;stroke-width:0.5"
         x="131.15262"
         xlink:href="#mfafd2eecd9"
         y="122.24654"
         id="use384"
         width="100%"
         height="100%" />
    </g>
  </g>
  <g
     id="text_24"
     transform="translate(-34.5,37.895878)">
    <text
       style="font-style:normal;font-weight:normal;font-size:8.33px;font-family:'DejaVu Sans';text-anchor:start"
       x="146.14662"
       y="124.43316"
       id="text389">Wellesley</text>
  </g>
  <g
     id="PathCollection_38"
     transform="translate(-34.5,37.895878)">
    <defs
       id="defs393">
      <path
         d="M 0,1.2 C 0.318244,1.2 0.623496,1.07356 0.848528,0.848528 1.07356,0.623496 1.2,0.318244 1.2,0 1.2,-0.318244 1.07356,-0.623496 0.848528,-0.848528 0.623496,-1.07356 0.318244,-1.2 0,-1.2 c -0.318244,0 -0.623496,0.12644 -0.848528,0.351472 C -1.07356,-0.623496 -1.2,-0.318244 -1.2,0 c 0,0.318244 0.12644,0.623496 0.351472,0.848528 C -0.623496,1.07356 -0.318244,1.2 0,1.2 Z"
         id="mf36434af73"
         style="stroke:#36905d;stroke-width:0.5" />
    </defs>
    <g
       id="g397">
      <use
         style="fill:#36905d;stroke:#36905d;stroke-width:0.5"
         x="131.15262"
         xlink:href="#mf36434af73"
         y="131.97441"
         id="use395"
         width="100%"
         height="100%" />
    </g>
  </g>
  <g
     id="text_25"
     transform="translate(-34.5,37.895878)">
    <text
       style="font-style:normal;font-weight:normal;font-size:8.33px;font-family:'DejaVu Sans';text-anchor:start"
       x="146.14662"
       y="134.16104"
       id="text400">Wakefield</text>
  </g>
  <g
     id="PathCollection_39"
     transform="translate(-34.5,37.895878)">
    <defs
       id="defs404">
      <path
         d="M 0,1.2 C 0.318244,1.2 0.623496,1.07356 0.848528,0.848528 1.07356,0.623496 1.2,0.318244 1.2,0 1.2,-0.318244 1.07356,-0.623496 0.848528,-0.848528 0.623496,-1.07356 0.318244,-1.2 0,-1.2 c -0.318244,0 -0.623496,0.12644 -0.848528,0.351472 C -1.07356,-0.623496 -1.2,-0.318244 -1.2,0 c 0,0.318244 0.12644,0.623496 0.351472,0.848528 C -0.623496,1.07356 -0.318244,1.2 0,1.2 Z"
         id="mfee4a02ce2"
         style="stroke:#379961;stroke-width:0.5" />
    </defs>
    <g
       id="g408">
      <use
         style="fill:#379961;stroke:#379961;stroke-width:0.5"
         x="131.15262"
         xlink:href="#mfee4a02ce2"
         y="141.70229"
         id="use406"
         width="100%"
         height="100%" />
    </g>
  </g>
  <g
     id="text_26"
     transform="translate(-34.5,37.895878)">
    <text
       style="font-style:normal;font-weight:normal;font-size:8.33px;font-family:'DejaVu Sans';text-anchor:start"
       x="146.14662"
       y="143.88892"
       id="text411">Framingham</text>
  </g>
  <g
     id="PathCollection_40"
     transform="translate(-34.5,37.895878)">
    <defs
       id="defs415">
      <path
         d="M 0,1.2 C 0.318244,1.2 0.623496,1.07356 0.848528,0.848528 1.07356,0.623496 1.2,0.318244 1.2,0 1.2,-0.318244 1.07356,-0.623496 0.848528,-0.848528 0.623496,-1.07356 0.318244,-1.2 0,-1.2 c -0.318244,0 -0.623496,0.12644 -0.848528,0.351472 C -1.07356,-0.623496 -1.2,-0.318244 -1.2,0 c 0,0.318244 0.12644,0.623496 0.351472,0.848528 C -0.623496,1.07356 -0.318244,1.2 0,1.2 Z"
         id="m41b7602737"
         style="stroke:#37a366;stroke-width:0.5" />
    </defs>
    <g
       id="g419">
      <use
         style="fill:#37a366;stroke:#37a366;stroke-width:0.5"
         x="131.15262"
         xlink:href="#m41b7602737"
         y="151.43016"
         id="use417"
         width="100%"
         height="100%" />
    </g>
  </g>
  <g
     id="text_27"
     transform="translate(-34.5,37.895878)">
    <text
       style="font-style:normal;font-weight:normal;font-size:8.33px;font-family:'DejaVu Sans';text-anchor:start"
       x="146.14662"
       y="153.61679"
       id="text422">Natick</text>
  </g>
  <g
     id="PathCollection_41"
     transform="translate(-34.5,37.895878)">
    <defs
       id="defs426">
      <path
         d="M 0,1.2 C 0.318244,1.2 0.623496,1.07356 0.848528,0.848528 1.07356,0.623496 1.2,0.318244 1.2,0 1.2,-0.318244 1.07356,-0.623496 0.848528,-0.848528 0.623496,-1.07356 0.318244,-1.2 0,-1.2 c -0.318244,0 -0.623496,0.12644 -0.848528,0.351472 C -1.07356,-0.623496 -1.2,-0.318244 -1.2,0 c 0,0.318244 0.12644,0.623496 0.351472,0.848528 C -0.623496,1.07356 -0.318244,1.2 0,1.2 Z"
         id="m977094729d"
         style="stroke:#40a76f;stroke-width:0.5" />
    </defs>
    <g
       id="g430">
      <use
         style="fill:#40a76f;stroke:#40a76f;stroke-width:0.5"
         x="131.15262"
         xlink:href="#m977094729d"
         y="161.15805"
         id="use428"
         width="100%"
         height="100%" />
    </g>
  </g>
  <g
     id="text_28"
     transform="translate(-34.5,37.895878)">
    <text
       style="font-style:normal;font-weight:normal;font-size:8.33px;font-family:'DejaVu Sans';text-anchor:start"
       x="146.14662"
       y="163.34467"
       id="text433">Reading</text>
  </g>
  <g
     id="PathCollection_42"
     transform="translate(-34.5,37.895878)">
    <defs
       id="defs437">
      <path
         d="M 0,1.2 C 0.318244,1.2 0.623496,1.07356 0.848528,0.848528 1.07356,0.623496 1.2,0.318244 1.2,0 1.2,-0.318244 1.07356,-0.623496 0.848528,-0.848528 0.623496,-1.07356 0.318244,-1.2 0,-1.2 c -0.318244,0 -0.623496,0.12644 -0.848528,0.351472 C -1.07356,-0.623496 -1.2,-0.318244 -1.2,0 c 0,0.318244 0.12644,0.623496 0.351472,0.848528 C -0.623496,1.07356 -0.318244,1.2 0,1.2 Z"
         id="m45e15cb408"
         style="stroke:#4aad78;stroke-width:0.5" />
    </defs>
    <g
       id="g441">
      <use
         style="fill:#4aad78;stroke:#4aad78;stroke-width:0.5"
         x="131.15262"
         xlink:href="#m45e15cb408"
         y="170.88593"
         id="use439"
         width="100%"
         height="100%" />
    </g>
  </g>
  <g
     id="text_29"
     transform="translate(-34.5,37.895878)">
    <text
       style="font-style:normal;font-weight:normal;font-size:8.33px;font-family:'DejaVu Sans';text-anchor:start"
       x="146.14662"
       y="173.07256"
       id="text444">Andover</text>
  </g>
  <g
     id="PathCollection_43"
     transform="translate(-34.5,37.895878)">
    <defs
       id="defs448">
      <path
         d="M 0,1.2 C 0.318244,1.2 0.623496,1.07356 0.848528,0.848528 1.07356,0.623496 1.2,0.318244 1.2,0 1.2,-0.318244 1.07356,-0.623496 0.848528,-0.848528 0.623496,-1.07356 0.318244,-1.2 0,-1.2 c -0.318244,0 -0.623496,0.12644 -0.848528,0.351472 C -1.07356,-0.623496 -1.2,-0.318244 -1.2,0 c 0,0.318244 0.12644,0.623496 0.351472,0.848528 C -0.623496,1.07356 -0.318244,1.2 0,1.2 Z"
         id="m73d6196139"
         style="stroke:#54b281;stroke-width:0.5" />
    </defs>
    <g
       id="g452">
      <use
         style="fill:#54b281;stroke:#54b281;stroke-width:0.5"
         x="131.15262"
         xlink:href="#m73d6196139"
         y="180.6138"
         id="use450"
         width="100%"
         height="100%" />
    </g>
  </g>
  <g
     id="text_30"
     transform="translate(-34.5,37.895878)">
    <text
       style="font-style:normal;font-weight:normal;font-size:8.33px;font-family:'DejaVu Sans';text-anchor:start"
       x="146.14662"
       y="182.80043"
       id="text455">Bridgewater</text>
  </g>
  <g
     id="PathCollection_44"
     transform="translate(-34.5,37.895878)">
    <defs
       id="defs459">
      <path
         d="M 0,1.2 C 0.318244,1.2 0.623496,1.07356 0.848528,0.848528 1.07356,0.623496 1.2,0.318244 1.2,0 1.2,-0.318244 1.07356,-0.623496 0.848528,-0.848528 0.623496,-1.07356 0.318244,-1.2 0,-1.2 c -0.318244,0 -0.623496,0.12644 -0.848528,0.351472 C -1.07356,-0.623496 -1.2,-0.318244 -1.2,0 c 0,0.318244 0.12644,0.623496 0.351472,0.848528 C -0.623496,1.07356 -0.318244,1.2 0,1.2 Z"
         id="mb896a6af8d"
         style="stroke:#5db68a;stroke-width:0.5" />
    </defs>
    <g
       id="g463">
      <use
         style="fill:#5db68a;stroke:#5db68a;stroke-width:0.5"
         x="131.15262"
         xlink:href="#mb896a6af8d"
         y="190.34167"
         id="use461"
         width="100%"
         height="100%" />
    </g>
  </g>
  <g
     id="text_31"
     transform="translate(-34.5,37.895878)">
    <text
       style="font-style:normal;font-weight:normal;font-size:8.33px;font-family:'DejaVu Sans';text-anchor:start"
       x="146.14662"
       y="192.52831"
       id="text466">Billerica</text>
  </g>
  <g
     id="PathCollection_45"
     transform="translate(-34.5,37.895878)">
    <defs
       id="defs470">
      <path
         d="M 0,1.2 C 0.318244,1.2 0.623496,1.07356 0.848528,0.848528 1.07356,0.623496 1.2,0.318244 1.2,0 1.2,-0.318244 1.07356,-0.623496 0.848528,-0.848528 0.623496,-1.07356 0.318244,-1.2 0,-1.2 c -0.318244,0 -0.623496,0.12644 -0.848528,0.351472 C -1.07356,-0.623496 -1.2,-0.318244 -1.2,0 c 0,0.318244 0.12644,0.623496 0.351472,0.848528 C -0.623496,1.07356 -0.318244,1.2 0,1.2 Z"
         id="m2dfbb5d197"
         style="stroke:#67bc93;stroke-width:0.5" />
    </defs>
    <g
       id="g474">
      <use
         style="fill:#67bc93;stroke:#67bc93;stroke-width:0.5"
         x="131.15262"
         xlink:href="#m2dfbb5d197"
         y="200.06956"
         id="use472"
         width="100%"
         height="100%" />
    </g>
  </g>
  <g
     id="text_32"
     transform="translate(-34.5,37.895878)">
    <text
       style="font-style:normal;font-weight:normal;font-size:8.33px;font-family:'DejaVu Sans';text-anchor:start"
       x="146.14662"
       y="202.25618"
       id="text477">Arlington</text>
  </g>
  <g
     id="PathCollection_46"
     transform="translate(-34.5,37.895878)">
    <defs
       id="defs481">
      <path
         d="M 0,1.2 C 0.318244,1.2 0.623496,1.07356 0.848528,0.848528 1.07356,0.623496 1.2,0.318244 1.2,0 1.2,-0.318244 1.07356,-0.623496 0.848528,-0.848528 0.623496,-1.07356 0.318244,-1.2 0,-1.2 c -0.318244,0 -0.623496,0.12644 -0.848528,0.351472 C -1.07356,-0.623496 -1.2,-0.318244 -1.2,0 c 0,0.318244 0.12644,0.623496 0.351472,0.848528 C -0.623496,1.07356 -0.318244,1.2 0,1.2 Z"
         id="mbff41181d8"
         style="stroke:#71c19d;stroke-width:0.5" />
    </defs>
    <g
       id="g485">
      <use
         style="fill:#71c19d;stroke:#71c19d;stroke-width:0.5"
         x="131.15262"
         xlink:href="#mbff41181d8"
         y="209.79744"
         id="use483"
         width="100%"
         height="100%" />
    </g>
  </g>
  <g
     id="text_33"
     transform="translate(-34.5,37.895878)">
    <text
       style="font-style:normal;font-weight:normal;font-size:8.33px;font-family:'DejaVu Sans';text-anchor:start"
       x="146.14662"
       y="211.98405"
       id="text488">Beverly</text>
  </g>
  <g
     id="PathCollection_47"
     transform="translate(-34.5,37.895878)">
    <defs
       id="defs492">
      <path
         d="M 0,1.2 C 0.318244,1.2 0.623496,1.07356 0.848528,0.848528 1.07356,0.623496 1.2,0.318244 1.2,0 1.2,-0.318244 1.07356,-0.623496 0.848528,-0.848528 0.623496,-1.07356 0.318244,-1.2 0,-1.2 c -0.318244,0 -0.623496,0.12644 -0.848528,0.351472 C -1.07356,-0.623496 -1.2,-0.318244 -1.2,0 c 0,0.318244 0.12644,0.623496 0.351472,0.848528 C -0.623496,1.07356 -0.318244,1.2 0,1.2 Z"
         id="m2c574203a0"
         style="stroke:#7ac6a5;stroke-width:0.5" />
    </defs>
    <g
       id="g496">
      <use
         style="fill:#7ac6a5;stroke:#7ac6a5;stroke-width:0.5"
         x="131.15262"
         xlink:href="#m2c574203a0"
         y="219.52531"
         id="use494"
         width="100%"
         height="100%" />
    </g>
  </g>
  <g
     id="text_34"
     transform="translate(-34.5,37.895878)">
    <text
       style="font-style:normal;font-weight:normal;font-size:8.33px;font-family:'DejaVu Sans';text-anchor:start"
       x="146.14662"
       y="221.71194"
       id="text499">Melrose</text>
  </g>
  <g
     id="PathCollection_48"
     transform="translate(-34.5,37.895878)">
    <defs
       id="defs503">
      <path
         d="M 0,1.2 C 0.318244,1.2 0.623496,1.07356 0.848528,0.848528 1.07356,0.623496 1.2,0.318244 1.2,0 1.2,-0.318244 1.07356,-0.623496 0.848528,-0.848528 0.623496,-1.07356 0.318244,-1.2 0,-1.2 c -0.318244,0 -0.623496,0.12644 -0.848528,0.351472 C -1.07356,-0.623496 -1.2,-0.318244 -1.2,0 c 0,0.318244 0.12644,0.623496 0.351472,0.848528 C -0.623496,1.07356 -0.318244,1.2 0,1.2 Z"
         id="m8ad4f08174"
         style="stroke:#84cbaf;stroke-width:0.5" />
    </defs>
    <g
       id="g507">
      <use
         style="fill:#84cbaf;stroke:#84cbaf;stroke-width:0.5"
         x="131.15262"
         xlink:href="#m8ad4f08174"
         y="229.25319"
         id="use505"
         width="100%"
         height="100%" />
    </g>
  </g>
  <g
     id="text_35"
     transform="translate(-34.5,37.895878)">
    <text
       style="font-style:normal;font-weight:normal;font-size:8.33px;font-family:'DejaVu Sans';text-anchor:start"
       x="146.14662"
       y="231.43982"
       id="text510">North Andover</text>
  </g>
  <g
     id="PathCollection_49"
     transform="translate(-34.5,37.895878)">
    <defs
       id="defs514">
      <path
         d="M 0,1.2 C 0.318244,1.2 0.623496,1.07356 0.848528,0.848528 1.07356,0.623496 1.2,0.318244 1.2,0 1.2,-0.318244 1.07356,-0.623496 0.848528,-0.848528 0.623496,-1.07356 0.318244,-1.2 0,-1.2 c -0.318244,0 -0.623496,0.12644 -0.848528,0.351472 C -1.07356,-0.623496 -1.2,-0.318244 -1.2,0 c 0,0.318244 0.12644,0.623496 0.351472,0.848528 C -0.623496,1.07356 -0.318244,1.2 0,1.2 Z"
         id="m6289d07359"
         style="stroke:#8ed0b8;stroke-width:0.5" />
    </defs>
    <g
       id="g518">
      <use
         style="fill:#8ed0b8;stroke:#8ed0b8;stroke-width:0.5"
         x="131.15262"
         xlink:href="#m6289d07359"
         y="238.98106"
         id="use516"
         width="100%"
         height="100%" />
    </g>
  </g>
  <g
     id="text_36"
     transform="translate(-34.5,37.895878)">
    <text
       style="font-style:normal;font-weight:normal;font-size:8.33px;font-family:'DejaVu Sans';text-anchor:start"
       x="146.14662"
       y="241.16769"
       id="text521">Franklin</text>
  </g>
  <g
     id="PathCollection_50"
     transform="translate(-34.5,37.895878)">
    <defs
       id="defs525">
      <path
         d="M 0,1.2 C 0.318244,1.2 0.623496,1.07356 0.848528,0.848528 1.07356,0.623496 1.2,0.318244 1.2,0 1.2,-0.318244 1.07356,-0.623496 0.848528,-0.848528 0.623496,-1.07356 0.318244,-1.2 0,-1.2 c -0.318244,0 -0.623496,0.12644 -0.848528,0.351472 C -1.07356,-0.623496 -1.2,-0.318244 -1.2,0 c 0,0.318244 0.12644,0.623496 0.351472,0.848528 C -0.623496,1.07356 -0.318244,1.2 0,1.2 Z"
         id="m542e6572b6"
         style="stroke:#97d5c1;stroke-width:0.5" />
    </defs>
    <g
       id="g529">
      <use
         style="fill:#97d5c1;stroke:#97d5c1;stroke-width:0.5"
         x="131.15262"
         xlink:href="#m542e6572b6"
         y="248.70895"
         id="use527"
         width="100%"
         height="100%" />
    </g>
  </g>
  <g
     id="text_37"
     transform="translate(-34.5,37.895878)">
    <text
       style="font-style:normal;font-weight:normal;font-size:8.33px;font-family:'DejaVu Sans';text-anchor:start"
       x="146.14662"
       y="250.89557"
       id="text532">Brookline</text>
  </g>
  <g
     id="PathCollection_51"
     transform="translate(-34.5,37.895878)">
    <defs
       id="defs536">
      <path
         d="M 0,1.2 C 0.318244,1.2 0.623496,1.07356 0.848528,0.848528 1.07356,0.623496 1.2,0.318244 1.2,0 1.2,-0.318244 1.07356,-0.623496 0.848528,-0.848528 0.623496,-1.07356 0.318244,-1.2 0,-1.2 c -0.318244,0 -0.623496,0.12644 -0.848528,0.351472 C -1.07356,-0.623496 -1.2,-0.318244 -1.2,0 c 0,0.318244 0.12644,0.623496 0.351472,0.848528 C -0.623496,1.07356 -0.318244,1.2 0,1.2 Z"
         id="mda6781096c"
         style="stroke:#a1daca;stroke-width:0.5" />
    </defs>
    <g
       id="g540">
      <use
         style="fill:#a1daca;stroke:#a1daca;stroke-width:0.5"
         x="131.15262"
         xlink:href="#mda6781096c"
         y="258.43683"
         id="use538"
         width="100%"
         height="100%" />
    </g>
  </g>
  <g
     id="text_38"
     transform="translate(-34.5,37.895878)">
    <text
       style="font-style:normal;font-weight:normal;font-size:8.33px;font-family:'DejaVu Sans';text-anchor:start"
       x="146.14662"
       y="260.62344"
       id="text543">Shrewsbury</text>
  </g>
  <defs
     id="defs552">
    <clipPath
       id="pec9ceb09d5">
      <rect
         height="323.72101"
         width="42.200001"
         x="39.365623"
         y="3.5999999"
         id="rect549" />
    </clipPath>
  </defs>
  <path
     style="fill:#ff8080;stroke-width:0.00292969"
     d="m 59.991118,206.75701 c 0,-0.20221 3.5e-4,-0.28495 7.5e-4,-0.18383 4.28e-4,0.10111 4.28e-4,0.26656 0,0.36767 -4.27e-4,0.10112 -7.5e-4,0.0184 -7.5e-4,-0.18384 z"
     id="path1907" />
  <path
     style="fill:#ff8080;stroke-width:0.00292969"
     d="m 57.147901,206.75701 v -0.36621 l 1.420167,7.4e-4 1.420166,7.3e-4 7.43e-4,0.36548 7.44e-4,0.36548 h -1.420909 -1.420911 z"
     id="path1909" />
  <path
     style="fill:#ff8080;stroke-width:0.00292969"
     d="m 59.992628,206.75555 v -0.36767 h -1.422363 c -1.194864,0 -1.422364,-6.4e-4 -1.422364,-0.004 0,-0.003 0.227636,-0.005 1.417237,-0.006 0.77948,-7.5e-4 1.42218,-0.003 1.428223,-0.004 l 0.01099,-0.001 v 0.37532 c 0,0.37336 -3e-5,0.37532 -0.0059,0.37532 -0.0058,0 -0.0058,-0.002 -0.0058,-0.36768 z"
     id="path1911" />
  <path
     style="fill:#ff8080;stroke-width:0.00292969"
     d="m 57.147901,206.75701 v -0.36621 h 1.420899 1.420899 v 0.36621 0.36622 H 58.5688 57.147901 Z"
     id="path1913" />
  <path
     style="fill:#ff8080;stroke-width:0.00292969"
     d="m 59.992628,206.75555 v -0.36767 h -1.422363 c -1.189022,0 -1.422364,-6.5e-4 -1.422364,-0.004 0,-0.003 0.228942,-0.005 1.389405,-0.006 0.764172,-7.5e-4 1.406872,-0.003 1.428222,-0.004 l 0.03882,-0.001 v 0.37542 c 0,0.37347 -3e-5,0.37542 -0.0059,0.37542 -0.0058,0 -0.0058,-0.002 -0.0058,-0.36768 z"
     id="path1915" />
  <path
     style="fill:#ff8080;stroke-width:0.00292969"
     d="m 59.992628,206.75555 v -0.36767 h -1.422363 c -1.184048,0 -1.422364,-6.6e-4 -1.422364,-0.004 0,-0.003 0.22578,-0.005 1.341065,-0.006 0.737585,-7.5e-4 1.380286,-0.003 1.428223,-0.004 l 0.08716,-0.002 v 0.37547 c 0,0.37351 -3.1e-5,0.37547 -0.0059,0.37547 -0.0059,0 -0.0059,-0.002 -0.0059,-0.36768 z"
     id="path1917" />
  <rect
     style="fill:#ff8080;stroke-width:0.75"
     id="rect1919"
     width="41.705925"
     height="0.73920059"
     x="39.616257"
     y="206.38077"
     rx="0"
     ry="0" />
  <rect
     style="fill:#ff8080;stroke-width:0.977829"
     id="rect1927"
     width="17.651917"
     height="1.2384497"
     x="88.814941"
     y="41.861618" />
</svg>
